<?xml version="1.0" standalone="no"?>
<!DOCTYPE svg PUBLIC "-//W3C//DTD SVG 20010904//EN"
 "http://www.w3.org/TR/2001/REC-SVG-20010904/DTD/svg10.dtd">
<svg version="1.0" xmlns="http://www.w3.org/2000/svg"
 width="1536.000000pt" height="1024.000000pt" viewBox="0 0 1536.000000 1024.000000"
 preserveAspectRatio="xMidYMid meet">

<g transform="translate(0.000000,1024.000000) scale(0.100000,-0.100000)"
fill="#000000" stroke="none">
<path d="M9070 3989 c-87 -13 -217 -59 -287 -100 -74 -44 -189 -160 -232 -232
-195 -332 -92 -750 233 -946 225 -135 552 -143 806 -20 114 56 239 179 293
289 103 209 103 423 1 630 -38 77 -62 110 -129 176 -67 67 -98 90 -176 128
-52 25 -123 52 -159 61 -83 19 -266 27 -350 14z m309 -195 c181 -46 331 -190
376 -359 19 -76 19 -194 0 -270 -45 -172 -190 -311 -375 -360 -74 -20 -268
-20 -345 0 -237 60 -394 257 -395 490 0 137 44 245 142 351 138 147 372 205
597 148z"/>
<path d="M10972 3990 c-258 -36 -458 -180 -561 -402 -49 -103 -64 -177 -64
-298 0 -363 265 -639 656 -682 105 -11 269 0 289 20 5 5 -33 40 -85 78 l-93
70 -94 12 c-160 22 -296 89 -373 186 -166 209 -152 491 33 676 112 113 243
163 420 162 152 -1 259 -33 360 -108 146 -107 220 -283 199 -471 -10 -88 -39
-159 -99 -239 l-46 -60 55 -41 c98 -71 94 -71 142 -11 166 210 186 530 47 766
-18 32 -69 93 -113 137 -93 93 -197 153 -322 186 -89 23 -257 32 -351 19z"/>
<path d="M3490 3300 l0 -670 463 0 c359 0 477 3 529 14 198 43 316 167 326
347 8 134 -40 238 -139 304 l-45 31 41 39 c67 65 89 123 90 235 0 84 -3 101
-28 152 -50 102 -139 170 -264 203 -47 12 -141 15 -515 15 l-458 0 0 -670z
m973 461 c26 -12 60 -39 75 -59 24 -31 27 -45 27 -107 0 -64 -3 -76 -29 -109
-16 -21 -50 -48 -75 -60 -44 -20 -63 -21 -413 -24 l-368 -3 0 196 0 196 368
-3 c362 -3 368 -3 415 -27z m32 -564 c81 -37 125 -100 125 -179 -1 -103 -72
-176 -194 -197 -37 -7 -202 -11 -404 -11 l-342 0 0 206 0 205 388 -3 c347 -3
391 -5 427 -21z"/>
<path d="M5290 3533 c0 -339 4 -453 14 -505 43 -199 185 -341 403 -400 112
-30 363 -30 476 0 120 33 201 76 271 145 64 63 92 107 129 207 20 52 22 77 25
523 l3 467 -95 0 -95 0 6 -389 c6 -501 -2 -562 -96 -663 -80 -87 -202 -128
-381 -128 -262 0 -411 87 -459 267 -7 27 -11 189 -12 477 l0 436 -95 0 -94 0
0 -437z"/>
<path d="M7140 3300 l0 -670 520 0 520 0 0 90 0 90 -425 0 -425 0 0 580 0 580
-95 0 -95 0 0 -670z"/>
<path d="M5579 2173 c10 -27 45 -119 77 -205 57 -157 58 -158 88 -158 31 0 31
1 86 155 30 85 57 155 60 155 3 0 30 -70 60 -155 l55 -155 33 0 c17 0 32 2 32
4 0 2 34 93 75 202 41 109 75 200 75 201 0 2 -15 3 -33 3 l-32 0 -55 -155
c-30 -85 -58 -155 -62 -155 -6 0 -31 61 -89 223 -29 80 -33 87 -58 87 -26 0
-30 -6 -81 -147 -29 -82 -56 -154 -60 -162 -4 -8 -30 51 -65 148 l-58 161 -33
0 -34 0 19 -47z"/>
<path d="M6769 2024 c-52 -108 -95 -200 -97 -205 -2 -5 12 -9 30 -9 31 0 36 4
55 50 l21 50 117 0 116 0 22 -50 c20 -45 25 -50 55 -50 19 0 32 4 30 9 -1 4
-46 97 -98 205 -93 192 -95 196 -125 196 -31 0 -33 -4 -126 -196z m210 -56 c1
-5 -37 -8 -84 -8 -49 0 -85 4 -85 10 0 5 19 48 43 96 l42 86 42 -89 c23 -48
42 -91 42 -95z"/>
<path d="M7570 2195 c0 -23 3 -24 73 -27 l72 -3 3 -177 2 -178 30 0 30 0 0
180 0 180 75 0 c73 0 75 1 75 25 l0 25 -180 0 -180 0 0 -25z"/>
<path d="M8460 2015 l0 -205 165 0 165 0 0 25 0 25 -135 0 -135 0 0 65 0 65
115 0 115 0 0 25 c0 24 0 24 -112 27 l-113 3 -3 63 -3 62 131 0 130 0 0 25 0
25 -160 0 -160 0 0 -205z"/>
<path d="M9340 2015 l0 -205 30 0 30 0 0 81 0 82 46 -7 c26 -3 54 -6 63 -6 9
0 41 -34 70 -75 51 -71 56 -75 93 -75 l39 0 -60 78 c-34 43 -61 82 -61 85 0 4
7 7 16 7 9 0 31 15 50 34 29 29 34 41 34 79 0 30 -7 53 -22 72 -35 44 -74 55
-208 55 l-120 0 0 -205z m271 126 c26 -32 24 -67 -6 -96 -22 -23 -32 -25 -115
-25 l-90 0 0 76 0 76 96 -4 c86 -3 98 -5 115 -27z"/>
</g>
</svg>
